<mxfile host="Electron" modified="2024-06-24T06:51:21.551Z" agent="Mozilla/5.0 (Windows NT 10.0; Win64; x64) AppleWebKit/537.36 (KHTML, like Gecko) draw.io/24.6.1 Chrome/124.0.6367.207 Electron/30.0.6 Safari/537.36" etag="mJPDyOTVFBS9-s5GIDs9" version="24.6.1" type="device">
  <diagram name="Seite-1" id="i0lV0GfsKZDG5tb7Bh3x">
    <mxGraphModel dx="1221" dy="823" grid="1" gridSize="10" guides="1" tooltips="1" connect="1" arrows="1" fold="1" page="1" pageScale="1" pageWidth="827" pageHeight="1169" math="0" shadow="0">
      <root>
        <mxCell id="0" />
        <mxCell id="1" parent="0" />
        <mxCell id="BLIszXCAJAPoe8dzG9yy-1" value="" style="line;strokeWidth=1" vertex="1" parent="1">
          <mxGeometry x="20" y="90" width="780" height="10" as="geometry" />
        </mxCell>
        <mxCell id="BLIszXCAJAPoe8dzG9yy-2" value="" style="line;strokeWidth=1" vertex="1" parent="1">
          <mxGeometry x="20" y="120" width="780" height="10" as="geometry" />
        </mxCell>
        <mxCell id="BLIszXCAJAPoe8dzG9yy-3" value="Blog &#xa;Logo" style="text;spacingTop=-5;align=center;fillColor=none;strokeColor=none;rounded=0;" vertex="1" parent="1">
          <mxGeometry x="20" y="40" width="40" height="40" as="geometry" />
        </mxCell>
        <mxCell id="BLIszXCAJAPoe8dzG9yy-4" value="Autoshop" style="text;spacingTop=-5;fontSize=18;fontStyle=0" vertex="1" parent="1">
          <mxGeometry x="70" y="40" width="230" height="20" as="geometry" />
        </mxCell>
        <mxCell id="BLIszXCAJAPoe8dzG9yy-6" value="Home" style="text;spacingTop=-5;" vertex="1" parent="1">
          <mxGeometry x="20" y="100.00000000000009" width="30" height="20" as="geometry" />
        </mxCell>
        <mxCell id="BLIszXCAJAPoe8dzG9yy-7" value="About Us" style="text;spacingTop=-5;" vertex="1" parent="1">
          <mxGeometry x="59.999999999999936" y="100.00000000000016" width="30" height="20" as="geometry" />
        </mxCell>
        <mxCell id="BLIszXCAJAPoe8dzG9yy-8" value="Cars" style="text;spacingTop=-5;" vertex="1" parent="1">
          <mxGeometry x="119.99999999999997" y="100.00000000000026" width="30" height="20" as="geometry" />
        </mxCell>
        <mxCell id="BLIszXCAJAPoe8dzG9yy-10" value="" style="whiteSpace=wrap;html=1;aspect=fixed;" vertex="1" parent="1">
          <mxGeometry x="40" y="200" width="200" height="200" as="geometry" />
        </mxCell>
        <mxCell id="BLIszXCAJAPoe8dzG9yy-11" value="" style="whiteSpace=wrap;html=1;aspect=fixed;" vertex="1" parent="1">
          <mxGeometry x="490" y="200" width="200" height="200" as="geometry" />
        </mxCell>
        <mxCell id="BLIszXCAJAPoe8dzG9yy-12" value="Bild Leona" style="text;html=1;align=center;verticalAlign=middle;whiteSpace=wrap;rounded=0;" vertex="1" parent="1">
          <mxGeometry x="100" y="285" width="60" height="30" as="geometry" />
        </mxCell>
        <mxCell id="BLIszXCAJAPoe8dzG9yy-13" value="Bild Kristijan" style="text;html=1;align=center;verticalAlign=middle;whiteSpace=wrap;rounded=0;" vertex="1" parent="1">
          <mxGeometry x="535" y="290" width="110" height="30" as="geometry" />
        </mxCell>
        <mxCell id="BLIszXCAJAPoe8dzG9yy-14" value="Hier Kommt der Text über uns....." style="text;html=1;align=center;verticalAlign=middle;whiteSpace=wrap;rounded=0;" vertex="1" parent="1">
          <mxGeometry x="50" y="440" width="180" height="150" as="geometry" />
        </mxCell>
        <mxCell id="BLIszXCAJAPoe8dzG9yy-15" value="Hier Kommt der Text über uns....." style="text;html=1;align=center;verticalAlign=middle;whiteSpace=wrap;rounded=0;" vertex="1" parent="1">
          <mxGeometry x="500" y="440" width="180" height="150" as="geometry" />
        </mxCell>
        <mxCell id="BLIszXCAJAPoe8dzG9yy-16" value="&#xa;&lt;span style=&quot;color: rgb(0, 0, 0); font-family: Helvetica; font-size: 12px; font-style: normal; font-variant-ligatures: normal; font-variant-caps: normal; font-weight: 400; letter-spacing: normal; orphans: 2; text-align: center; text-indent: 0px; text-transform: none; widows: 2; word-spacing: 0px; -webkit-text-stroke-width: 0px; white-space: normal; background-color: rgb(251, 251, 251); text-decoration-thickness: initial; text-decoration-style: initial; text-decoration-color: initial; display: inline !important; float: none;&quot;&gt;Footer mit unseren Kontakt informationen&lt;/span&gt;&#xa;&#xa;" style="rounded=0;whiteSpace=wrap;html=1;" vertex="1" parent="1">
          <mxGeometry y="800" width="820" height="130" as="geometry" />
        </mxCell>
      </root>
    </mxGraphModel>
  </diagram>
</mxfile>
